<!-- icon666.com - MILLIONS OF FREE VECTOR ICONS -->
<svg viewBox="0 0 32 32" xmlns="http://www.w3.org/2000/svg" xmlns:xlink="http://www.w3.org/1999/xlink">
  <linearGradient id="linear-gradient" gradientUnits="userSpaceOnUse" x1="5.32" x2="26.68" y1="7.27" y2="28.62">
    <stop offset="0" stop-color="#ff9897"></stop>
    <stop offset=".22" stop-color="#fe8f98"></stop>
    <stop offset=".58" stop-color="#fb759b"></stop>
    <stop offset=".99" stop-color="#f650a0"></stop>
  </linearGradient>
  <g id="Layer_18" data-name="Layer 18">
    <path d="m27.81 22.71-7.1-13.49a1.51 1.51 0 0 1 -.21-.77v-2.95h1a1 1 0 0 0 1-1v-1a1 1 0 0 0 -1-1h-11a1 1 0 0 0 -1 1v1a1 1 0 0 0 1 1h1v2.95a1.47 1.47 0 0 1 -.23.79l-7.07 13.44a4.51 4.51 0 0 0 3.86 6.82h15.88a4.51 4.51 0 0 0 3.87-6.79zm-17.31-18.21v-1h11v1h-1a1 1 0 0 0 -1 1v2.95a1.66 1.66 0 0 0 0 .22.52.52 0 0 1 -.34.28c-.24.08-.81.12-1.91-.53a5.6 5.6 0 0 0 -4.78-.34v-2.58a1 1 0 0 0 -1-1zm16.5 22.23a3.46 3.46 0 0 1 -3 1.77h-15.94a3.5 3.5 0 0 1 -3.15-5h.09 4a.5.5 0 0 0 0-1h-3.57l2.11-4h.11 4a.5.5 0 0 0 0-1h-3.59l2.1-4h3.84a.5.5 0 0 0 0-1h-3.31l1.45-2.77a2.31 2.31 0 0 0 .22-.51 4.83 4.83 0 0 1 4.41.06 4.33 4.33 0 0 0 2.12.72 2 2 0 0 0 .66-.11 1.69 1.69 0 0 0 .3-.17l7.09 13.48a3.46 3.46 0 0 1 .06 3.53z" fill="url(#linear-gradient)" style="fill: rgb(53, 106, 177);"></path>
  </g>
</svg>
